<svg width="11" height="20" viewBox="0 0 11 20" fill="none" xmlns="http://www.w3.org/2000/svg">
<path d="M9.12435 4.50033V15.042C9.12435 17.0678 7.48352 18.7087 5.45768 18.7087C3.43185 18.7087 1.79102 17.0678 1.79102 15.042V3.58366C1.79102 2.31866 2.81768 1.29199 4.08268 1.29199C5.34768 1.29199 6.37435 2.31866 6.37435 3.58366V13.2087C6.37435 13.7128 5.96185 14.1253 5.45768 14.1253C4.95352 14.1253 4.54102 13.7128 4.54102 13.2087V4.50033H3.16602V13.2087C3.16602 14.4737 4.19268 15.5003 5.45768 15.5003C6.72268 15.5003 7.74935 14.4737 7.74935 13.2087V3.58366C7.74935 1.55783 6.10852 -0.0830078 4.08268 -0.0830078C2.05685 -0.0830078 0.416016 1.55783 0.416016 3.58366V15.042C0.416016 17.8287 2.67102 20.0837 5.45768 20.0837C8.24435 20.0837 10.4993 17.8287 10.4993 15.042V4.50033H9.12435Z" fill="#8193A8"/>
</svg>
