<svg width="20" height="18" viewBox="0 0 20 18" fill="none" xmlns="http://www.w3.org/2000/svg">
<path fill-rule="evenodd" clip-rule="evenodd" d="M19.6004 8.99961C19.6004 13.6388 15.3023 17.3996 10.0004 17.3996C8.21043 17.3996 6.53488 16.971 5.10051 16.2246L0.400391 17.3996L2.00635 13.6524C0.991752 12.3204 0.400391 10.7204 0.400391 8.99961C0.400391 4.36042 4.69846 0.599609 10.0004 0.599609C15.3023 0.599609 19.6004 4.36042 19.6004 8.99961ZM9.88844 6.47424C9.57957 6.47424 9.30867 6.64105 9.16263 6.89351C8.93108 7.2938 8.41887 7.43058 8.01858 7.19903C7.61829 6.96747 7.48151 6.45526 7.71306 6.05498C8.14612 5.30634 8.95761 4.79961 9.88844 4.79961C11.2758 4.79961 12.4004 5.92425 12.4004 7.31156C12.4004 8.40528 11.7014 9.33573 10.7258 9.68057V9.82351C10.7258 10.2859 10.3509 10.6608 9.88844 10.6608C9.42601 10.6608 9.05113 10.2859 9.05113 9.82351V8.98619C9.05113 8.52375 9.42601 8.14887 9.88844 8.14887C10.3509 8.14887 10.7258 7.774 10.7258 7.31156C10.7258 6.84912 10.3509 6.47424 9.88844 6.47424ZM9.88843 13.1728C10.3509 13.1728 10.7257 12.7979 10.7257 12.3355C10.7257 11.873 10.3509 11.4981 9.88843 11.4981C9.42599 11.4981 9.05111 11.873 9.05111 12.3355C9.05111 12.7979 9.42599 13.1728 9.88843 13.1728Z" fill="white"/>
</svg>
