<svg width="20" height="19" viewBox="0 0 20 19" fill="none" xmlns="http://www.w3.org/2000/svg">
<path d="M0.398438 2.99961C0.398438 1.67413 1.47295 0.599609 2.79844 0.599609H11.1984C12.5239 0.599609 13.5984 1.67413 13.5984 2.99961V7.79961C13.5984 9.12509 12.5239 10.1996 11.1984 10.1996H8.79844L5.19844 13.7996V10.1996H2.79844C1.47295 10.1996 0.398438 9.12509 0.398438 7.79961V2.99961Z" fill="currentColor" fill-opacity="0.8"/>
<path d="M15.9984 5.39961V8.59961C15.9984 10.8087 14.2076 12.5996 11.9984 12.5996H9.79255L7.67251 14.7197C8.00828 14.8983 8.39153 14.9996 8.79844 14.9996H11.1984L14.7984 18.5996V14.9996H17.1984C18.5239 14.9996 19.5984 13.9251 19.5984 12.5996V7.79961C19.5984 6.47413 18.5239 5.39961 17.1984 5.39961H15.9984Z" fill="currentColor" fill-opacity="0.8"/>
</svg>
