<svg width="20" height="19" viewBox="0 0 20 19" fill="none" xmlns="http://www.w3.org/2000/svg">
<path fill-rule="evenodd" clip-rule="evenodd" d="M19.5984 12.5996V2.99961C19.5984 1.67413 18.5239 0.599609 17.1984 0.599609H2.79844C1.47295 0.599609 0.398438 1.67413 0.398438 2.99961V12.5996C0.398438 13.9251 1.47295 14.9996 2.79844 14.9996H6.39844L9.99844 18.5996L13.5984 14.9996H17.1984C18.5239 14.9996 19.5984 13.9251 19.5984 12.5996ZM3.99844 5.39961C3.99844 4.73687 4.5357 4.19961 5.19844 4.19961H14.7984C15.4612 4.19961 15.9984 4.73687 15.9984 5.39961C15.9984 6.06235 15.4612 6.59961 14.7984 6.59961H5.19844C4.5357 6.59961 3.99844 6.06235 3.99844 5.39961ZM5.19844 8.99961C4.5357 8.99961 3.99844 9.53687 3.99844 10.1996C3.99844 10.8624 4.5357 11.3996 5.19844 11.3996H8.79844C9.46118 11.3996 9.99844 10.8624 9.99844 10.1996C9.99844 9.53687 9.46118 8.99961 8.79844 8.99961H5.19844Z" fill="currentColor" fill-opacity="0.8"/>
</svg>
