<svg width="22" height="20" viewBox="0 0 22 20" fill="none" xmlns="http://www.w3.org/2000/svg">
<path d="M19 2H17V1H19.5C19.78 1 20 1.22 20 1.5V3.5C20 3.78 19.78 4 19.5 4H19V5H18V3H19V2ZM18 7H19V6H18V7ZM16 1H15V5H16V1ZM22 13V16C22 16.55 21.55 17 21 17H20V18C20 19.11 19.11 20 18 20H4C2.9 20 2 19.11 2 18V17H1C0.45 17 0 16.55 0 16V13C0 12.45 0.45 12 1 12H2C2 8.13 5.13 5 9 5H10V3.73C9.4 3.39 9 2.74 9 2C9 0.9 9.9 0 11 0C12.1 0 13 0.9 13 2C13 2.74 12.6 3.39 12 3.73V5H13C13.34 5 13.67 5.03 14 5.08V8H18.74C19.53 9.13 20 10.5 20 12H21C21.55 12 22 12.45 22 13ZM9 13.5C9 12.12 7.88 11 6.5 11C5.12 11 4 12.12 4 13.5C4 14.88 5.12 16 6.5 16C7.88 16 9 14.88 9 13.5ZM18 13.5C18 12.12 16.88 11 15.5 11C14.12 11 13 12.12 13 13.5C13 14.88 14.12 16 15.5 16C16.88 16 18 14.88 18 13.5ZM16 6H15V7H16V6Z" fill="currentColor" fill-opacity="0.8"/>
</svg>
