<svg width="18" height="22" viewBox="0 0 18 22" fill="none" xmlns="http://www.w3.org/2000/svg">
<path fill-rule="evenodd" clip-rule="evenodd" d="M10.5623 0.25482C11.0619 0.412284 11.4016 0.875541 11.4016 1.39931V7.3993L16.2016 7.39931C16.649 7.39931 17.0593 7.64825 17.2659 8.04513C17.4726 8.44201 17.4412 8.9209 17.1846 9.28746L8.78465 21.2875C8.48429 21.7165 7.94033 21.9013 7.4408 21.7438C6.94127 21.5863 6.60157 21.1231 6.60157 20.5993L6.60157 14.5993H1.80157C1.35412 14.5993 0.943829 14.3504 0.737192 13.9535C0.530554 13.5566 0.561892 13.0777 0.818488 12.7112L9.21849 0.711151C9.51885 0.282067 10.0628 0.0973561 10.5623 0.25482Z" fill="currentColor" fill-opacity="0.8"/>
</svg>
