<svg width="20" height="20" viewBox="0 0 20 20" fill="none" xmlns="http://www.w3.org/2000/svg">
<path d="M11.1984 1.60039C11.1984 0.937649 10.6612 0.400391 9.99844 0.400391C9.3357 0.400391 8.79844 0.937649 8.79844 1.60039V2.80039C8.79844 3.46313 9.3357 4.00039 9.99844 4.00039C10.6612 4.00039 11.1984 3.46313 11.1984 2.80039V1.60039Z" fill="currentColor" fill-opacity="0.8"/>
<path d="M16.7866 4.90916C17.2552 4.44053 17.2552 3.68073 16.7866 3.2121C16.318 2.74347 15.5582 2.74347 15.0896 3.2121L14.241 4.06063C13.7724 4.52926 13.7724 5.28906 14.241 5.75769C14.7097 6.22632 15.4695 6.22632 15.9381 5.75769L16.7866 4.90916Z" fill="currentColor" fill-opacity="0.8"/>
<path d="M19.5984 10.0004C19.5984 10.6631 19.0612 11.2004 18.3984 11.2004H17.1984C16.5357 11.2004 15.9984 10.6631 15.9984 10.0004C15.9984 9.33765 16.5357 8.80039 17.1984 8.80039H18.3984C19.0612 8.80039 19.5984 9.33765 19.5984 10.0004Z" fill="currentColor" fill-opacity="0.8"/>
<path d="M4.05866 5.75771C4.52729 6.22634 5.28709 6.22634 5.75572 5.75771C6.22435 5.28908 6.22435 4.52928 5.75572 4.06065L4.90719 3.21212C4.43856 2.74349 3.67876 2.74349 3.21014 3.21212C2.74151 3.68075 2.74151 4.44055 3.21014 4.90918L4.05866 5.75771Z" fill="currentColor" fill-opacity="0.8"/>
<path d="M3.99844 10.0004C3.99844 10.6631 3.46118 11.2004 2.79844 11.2004H1.59844C0.935696 11.2004 0.398437 10.6631 0.398438 10.0004C0.398438 9.33765 0.935696 8.80039 1.59844 8.80039H2.79844C3.46118 8.80039 3.99844 9.33765 3.99844 10.0004Z" fill="currentColor" fill-opacity="0.8"/>
<path d="M7.59844 17.2004V16.0004H12.3984V17.2004C12.3984 18.5259 11.3239 19.6004 9.99844 19.6004C8.67295 19.6004 7.59844 18.5259 7.59844 17.2004Z" fill="currentColor" fill-opacity="0.8"/>
<path d="M12.3995 14.8004C12.417 14.392 12.6476 14.0248 12.9706 13.7698C14.0839 12.8907 14.7984 11.529 14.7984 10.0004C14.7984 7.34942 12.6494 5.20039 9.99844 5.20039C7.34747 5.20039 5.19844 7.34942 5.19844 10.0004C5.19844 11.529 5.91297 12.8907 7.02626 13.7698C7.34933 14.0248 7.57985 14.392 7.59737 14.8004H12.3995Z" fill="currentColor" fill-opacity="0.8"/>
</svg>
