<svg width="24" height="20" viewBox="0 0 24 20" fill="none" xmlns="http://www.w3.org/2000/svg">
<path fill-rule="evenodd" clip-rule="evenodd" d="M23.2008 9.99922C23.2008 15.4116 18.1864 19.7992 12.0008 19.7992C9.91249 19.7992 7.95769 19.2991 6.28426 18.4284L0.800781 19.7992L2.67441 15.4274C1.4907 13.8734 0.800781 12.0068 0.800781 9.99922C0.800781 4.58683 5.81519 0.199219 12.0008 0.199219C18.1864 0.199219 23.2008 4.58683 23.2008 9.99922ZM11.8702 7.05296C11.5098 7.05296 11.1938 7.24757 11.0234 7.5421C10.7533 8.0091 10.1557 8.16869 9.68867 7.89854C9.22167 7.62839 9.06208 7.03082 9.33223 6.56381C9.83747 5.6904 10.7842 5.09922 11.8702 5.09922C13.4887 5.09922 14.8008 6.4113 14.8008 8.02983C14.8008 9.30583 13.9853 10.3914 12.847 10.7937V10.9604C12.847 11.4999 12.4097 11.9373 11.8702 11.9373C11.3307 11.9373 10.8933 11.4999 10.8933 10.9604V9.98356C10.8933 9.44405 11.3307 9.0067 11.8702 9.0067C12.4097 9.0067 12.847 8.56934 12.847 8.02983C12.847 7.49032 12.4097 7.05296 11.8702 7.05296ZM11.8702 14.8679C12.4097 14.8679 12.847 14.4305 12.847 13.891C12.847 13.3515 12.4097 12.9142 11.8702 12.9142C11.3307 12.9142 10.8933 13.3515 10.8933 13.891C10.8933 14.4305 11.3307 14.8679 11.8702 14.8679Z" fill="currentColor"/>
</svg>
