<svg width="20" height="20" viewBox="0 0 20 20" fill="none" xmlns="http://www.w3.org/2000/svg">
<path fill-rule="evenodd" clip-rule="evenodd" d="M19.5984 10.0004C19.5984 15.3023 15.3004 19.6004 9.99844 19.6004C4.6965 19.6004 0.398438 15.3023 0.398438 10.0004C0.398438 4.69846 4.6965 0.400391 9.99844 0.400391C15.3004 0.400391 19.5984 4.69846 19.5984 10.0004ZM9.99845 6.40039C9.5558 6.40039 9.16756 6.63945 8.95826 7.00126C8.62641 7.57494 7.89233 7.77097 7.31866 7.43912C6.74499 7.10727 6.54895 6.37319 6.8808 5.79952C7.50145 4.72661 8.66444 4.00039 9.99845 4.00039C11.9867 4.00039 13.5985 5.61217 13.5985 7.60039C13.5985 9.16785 12.5967 10.5013 11.1985 10.9955V11.2004C11.1985 11.8631 10.6612 12.4004 9.99845 12.4004C9.33571 12.4004 8.79845 11.8631 8.79845 11.2004V10.0004C8.79845 9.33765 9.33571 8.80039 9.99845 8.80039C10.6612 8.80039 11.1985 8.26313 11.1985 7.60039C11.1985 6.93765 10.6612 6.40039 9.99845 6.40039ZM9.99844 16.0004C10.6612 16.0004 11.1984 15.4631 11.1984 14.8004C11.1984 14.1376 10.6612 13.6004 9.99844 13.6004C9.3357 13.6004 8.79844 14.1376 8.79844 14.8004C8.79844 15.4631 9.3357 16.0004 9.99844 16.0004Z" fill="currentColor" fill-opacity="0.8"/>
</svg>
