<svg width="16" height="16" viewBox="0 0 16 16" fill="none" xmlns="http://www.w3.org/2000/svg">
<path d="M1.33333 10.5C0.875 10.5 0.5 10.875 0.5 11.3333V13.8333C0.5 14.75 1.25 15.5 2.16667 15.5H4.66667C5.125 15.5 5.5 15.125 5.5 14.6667C5.5 14.2083 5.125 13.8333 4.66667 13.8333H3C2.54167 13.8333 2.16667 13.4583 2.16667 13V11.3333C2.16667 10.875 1.79167 10.5 1.33333 10.5ZM2.16667 3C2.16667 2.54167 2.54167 2.16667 3 2.16667H4.66667C5.125 2.16667 5.5 1.79167 5.5 1.33333C5.5 0.875 5.125 0.5 4.66667 0.5H2.16667C1.25 0.5 0.5 1.25 0.5 2.16667V4.66667C0.5 5.125 0.875 5.5 1.33333 5.5C1.79167 5.5 2.16667 5.125 2.16667 4.66667V3ZM13.8333 0.5H11.3333C10.875 0.5 10.5 0.875 10.5 1.33333C10.5 1.79167 10.875 2.16667 11.3333 2.16667H13C13.4583 2.16667 13.8333 2.54167 13.8333 3V4.66667C13.8333 5.125 14.2083 5.5 14.6667 5.5C15.125 5.5 15.5 5.125 15.5 4.66667V2.16667C15.5 1.25 14.75 0.5 13.8333 0.5ZM13.8333 13C13.8333 13.4583 13.4583 13.8333 13 13.8333H11.3333C10.875 13.8333 10.5 14.2083 10.5 14.6667C10.5 15.125 10.875 15.5 11.3333 15.5H13.8333C14.75 15.5 15.5 14.75 15.5 13.8333V11.3333C15.5 10.875 15.125 10.5 14.6667 10.5C14.2083 10.5 13.8333 10.875 13.8333 11.3333V13ZM8 5.5C6.61667 5.5 5.5 6.61667 5.5 8C5.5 9.38333 6.61667 10.5 8 10.5C9.38333 10.5 10.5 9.38333 10.5 8C10.5 6.61667 9.38333 5.5 8 5.5Z" fill="#567191"/>
</svg>
